<svg width="24" height="24" xmlns="http://www.w3.org/2000/svg">
 <title/>

 <g>
  <title>background</title>
  <rect fill="none" id="canvas_background" height="402" width="582" y="-1" x="-1"/>
 </g>
 <g>
  <title>Layer 1</title>
  <path fill="#043ed6" id="svg_1" d="m21,0l-18,0c-1.657,0 -3,1.343 -3,3l0,18c0,1.656 1.343,3 3,3l18,0c1.656,0 3,-1.344 3,-3l0,-18c0,-1.657 -1.344,-3 -3,-3zm-10.56,18.18c0,0.795 -0.645,1.440001 -1.44,1.440001l-4.44,0c-0.795,0 -1.44,-0.646 -1.44,-1.440001l0,-13.62c0,-0.795 0.645,-1.44 1.44,-1.44l4.44,0c0.795,0 1.44,0.645 1.44,1.44l0,13.62zm10.44,-6c0,0.794 -0.644999,1.44 -1.439999,1.44l-4.440001,0c-0.795,0 -1.44,-0.646 -1.44,-1.44l0,-7.62c0,-0.795 0.646,-1.44 1.44,-1.44l4.440001,0c0.795,0 1.439999,0.645 1.439999,1.44l0,7.62z"/>
 </g>
</svg>