<svg width="512" height="512" xmlns="http://www.w3.org/2000/svg">

 <g>
  <title>background</title>
  <rect fill="none" id="canvas_background" height="402" width="582" y="-1" x="-1"/>
 </g>
 <g>
  <title>Layer 1</title>
  <path fill="#043ed6" id="svg_2" d="m255.908005,485.998993c-6.115005,0 -12.321991,-1.641998 -17.708008,-4.746002l-56.319,-33.31601c-8.397003,-4.746979 -4.289993,-6.388977 -1.550995,-7.302979c11.227005,-3.925018 13.509003,-4.745026 25.466003,-11.59201c1.278,-0.729004 2.921997,-0.457001 4.19899,0.365997l43.266006,25.64801c1.552994,0.911987 3.741013,0.911987 5.202011,0l168.59198,-97.304016c1.553009,-0.912994 2.554993,-2.738007 2.554993,-4.562988l0,-194.606003c0,-1.917007 -1.001984,-3.651001 -2.644989,-4.654007l-168.501984,-97.212986c-1.550995,-0.912998 -3.649002,-0.912998 -5.201996,0l-168.40802,97.302998c-1.644997,0.91301 -2.646996,2.738007 -2.646996,4.654999l0,194.514999c0,1.825012 1.002998,3.649994 2.646996,4.472992l46.188004,26.653015c25.102005,12.503998 40.436005,-2.19101 40.436005,-17.067993l0,-192.052002c0,-2.737991 2.190002,-4.83699 4.929993,-4.83699l21.359009,0c2.645996,0 4.927994,2.098999 4.927994,4.83699l0,192.143005c0,33.406982 -18.255997,52.575989 -49.927994,52.575989c-9.768005,0 -17.43602,0 -38.794006,-10.587982l-44.18,-25.46701c-10.952999,-6.299011 -17.707001,-18.074005 -17.707001,-30.76001l0,-194.516006c0,-12.596008 6.754002,-24.462006 17.707001,-30.760002l168.407997,-97.303991c10.679001,-6.023998 24.827011,-6.023998 35.414993,0l168.593994,97.394003c10.953003,6.297997 17.707001,18.07299 17.707001,30.760994l0,194.514999c0,12.596008 -6.753998,24.371002 -17.707001,30.761017l-168.593994,97.302979c-5.384979,3.104004 -11.501984,4.746002 -17.706985,4.746002zm136.098007,-191.774994c0,-36.42099 -24.645996,-46.095993 -76.399994,-52.940994c-52.395996,-6.938004 -57.688995,-10.498001 -57.688995,-22.729004c0,-10.130997 4.472992,-23.641006 43.265991,-23.641006c34.596008,0 47.375,7.485001 52.667999,30.853012c0.457001,2.189987 2.46701,3.832993 4.746002,3.832993l21.910004,0c1.367004,0 2.644989,-0.546997 3.55899,-1.552002c0.914001,-1.002991 1.368988,-2.373001 1.274994,-3.742996c-3.375,-40.251999 -30.121002,-58.964996 -84.15799,-58.964996c-48.102997,0 -76.764008,20.263992 -76.764008,54.310989c0,36.876007 28.569,47.101013 74.664001,51.662018c55.225006,5.386993 59.514008,13.510986 59.514008,24.372986c0,18.804993 -15.149994,26.834991 -50.65802,26.834991c-44.634979,0 -54.401993,-11.22699 -57.687988,-33.405975c-0.36499,-2.373016 -2.373993,-4.107025 -4.83699,-4.107025l-21.817001,0c-2.738007,0 -4.835999,2.19101 -4.835999,4.835999c0,28.390015 15.425995,62.253998 89.270996,62.253998c53.303986,-0.09198 83.973999,-21.181 83.973999,-57.872986l0,0z"/>
 </g>
</svg>