<svg width="512" height="512" xmlns="http://www.w3.org/2000/svg">

 <g>
  <title>background</title>
  <rect fill="none" id="canvas_background" height="402" width="582" y="-1" x="-1"/>
 </g>
 <g>
  <title>Layer 1</title>
  <path fill="#043ed6" id="svg_2" d="m112.154999,67.643997l84.212006,0l0,236.018997c0,106.375 -50.969009,143.497009 -132.414005,143.497009c-19.944,0 -45.429008,-3.324005 -62.051999,-8.864014l9.419,-68.145996c11.635,3.877991 26.594002,6.64798 43.214001,6.64798c35.457996,0 57.620998,-16.067993 57.620998,-73.686981l0,-235.466995z"/>
  <path fill="#043ed6" id="svg_3" d="m269.484009,354.634003c22.161011,11.63501 57.619995,23.269989 93.631989,23.269989c38.78302,0 59.282013,-16.065979 59.282013,-40.997986c0,-22.714996 -17.729004,-36.565002 -62.605988,-52.07901c-62.053009,-22.161987 -103.050018,-56.511993 -103.050018,-111.360001c0,-63.714996 53.740997,-111.916996 141.278015,-111.916996c42.661987,0 73.131989,8.313 95.294983,18.838001l-18.838989,67.59201c-14.403992,-7.201004 -41.553009,-17.729004 -77.562012,-17.729004c-36.566986,0 -54.296997,17.174988 -54.296997,36.013c0,23.824005 20.498993,34.348999 69.256012,53.188004c65.927979,24.378006 96.399994,58.728012 96.399994,111.914993c0,62.606018 -47.647003,115.794006 -150.143005,115.794006c-42.661987,0 -84.769989,-11.635986 -105.819992,-23.27002l17.173996,-69.256989z"/>
 </g>
</svg>